<svg width="77" height="50" viewBox="0 0 77 50" fill="none" xmlns="http://www.w3.org/2000/svg">
<path d="M11.1143 41.2373L11.3975 27.9268C11.3975 27.2471 11.3786 26.4541 11.3408 25.5479C7.11165 37.7445 4.49674 45.0417 3.49609 47.4395C2.72201 48.9121 1.8252 49.6862 0.805664 49.7617C0.692383 49.724 0.635742 49.6579 0.635742 49.5635C0.635742 49.4691 0.824544 49.0254 1.20215 48.2324C1.8252 46.9674 3.6377 41.3411 6.63965 31.3535C11.2087 16.0794 13.5781 7.74382 13.748 6.34668C13.9368 5.36491 14.3522 4.87402 14.9941 4.87402C16.3724 4.87402 17.1087 5.22331 17.2031 5.92188C17.1465 6.52604 16.7217 8.57454 15.9287 12.0674C15.1357 15.5413 14.7015 17.5615 14.626 18.1279C14.5693 18.6755 14.4089 19.7988 14.1445 21.498C13.8991 23.1784 13.7764 24.3112 13.7764 24.8965C13.7764 25.4629 13.7952 25.8216 13.833 25.9727C14.305 24.4056 15.0602 21.583 16.0986 17.5049C17.137 13.4268 17.8923 10.7269 18.3643 9.40527C18.8551 8.06478 19.1383 7.26237 19.2139 6.99805C20.7432 2.39128 21.9515 0.0878906 22.8389 0.0878906C23.0843 0.0878906 23.4242 0.248372 23.8584 0.569336C24.2926 0.871419 24.5098 1.23958 24.5098 1.67383C24.5098 2.10807 24.321 2.64616 23.9434 3.28809C22.6595 5.47819 21.0924 9.05599 19.2422 14.0215C15.6361 23.7259 13.7386 31.9105 13.5498 38.5752V38.6035C13.4743 41.1335 13.1156 42.3984 12.4736 42.3984C12.2093 42.3984 11.9827 42.3796 11.7939 42.3418C11.3408 42.2285 11.1143 41.8604 11.1143 41.2373ZM25.7275 25.123C26.1051 25.0664 26.917 24.2546 28.1631 22.6875C29.4092 21.1204 30.0322 19.8932 30.0322 19.0059C30.0322 18.8737 29.985 18.7227 29.8906 18.5527C29.513 18.9303 28.7201 20.0065 27.5117 21.7812C26.3223 23.556 25.7275 24.6699 25.7275 25.123ZM36.999 29.3428C37.943 28.3232 38.4717 28.1439 38.585 28.8047C38.585 29.0501 38.4339 29.4561 38.1318 30.0225C37.2067 31.7406 35.7907 33.5625 33.8838 35.4883C30.863 38.5469 28.1914 40.0762 25.8691 40.0762C24.7741 40.0762 23.8395 39.7646 23.0654 39.1416C21.6117 37.9521 20.8848 35.8848 20.8848 32.9395C20.8848 31.2591 21.3945 28.8991 22.4141 25.8594C23.4525 22.8008 25.0384 20.0348 27.1719 17.5615C28.1159 16.3532 29.0977 15.749 30.1172 15.749C30.6081 15.749 31.1178 15.8529 31.6465 16.0605C32.8926 16.5703 33.5156 17.3916 33.5156 18.5244C33.5156 18.6943 33.459 18.9681 33.3457 19.3457C32.5716 20.875 31.3255 22.6403 29.6074 24.6416C27.8893 26.6429 26.1429 28.2383 24.3682 29.4277C23.764 31.6178 23.4619 33.3265 23.4619 34.5537C23.4619 35.7809 23.4902 36.5645 23.5469 36.9043C23.7168 37.6973 24.3493 38.0938 25.4443 38.0938C26.5394 38.0938 27.8044 37.5934 29.2393 36.5928C30.6742 35.5732 32.2035 34.2327 33.8271 32.5713C35.4508 30.9098 36.3665 29.9753 36.5742 29.7676C36.8008 29.5599 36.9424 29.4183 36.999 29.3428ZM41.0771 16.8818L41.3887 16.7969C41.6152 16.8158 41.7285 17.1273 41.7285 17.7314C41.7285 18.3356 41.4548 19.6195 40.9072 21.583C40.3597 23.5465 40.0859 24.9437 40.0859 25.7744C40.0859 26.5863 40.1426 27.2754 40.2559 27.8418C40.8223 27.5397 41.3604 26.1615 41.8701 23.707C42.3799 21.2337 42.7197 19.8366 42.8896 19.5156C43.0596 19.1758 43.2012 18.9964 43.3145 18.9775C44.2018 18.9775 44.7871 19.4495 45.0703 20.3936C45.1647 20.6956 45.2119 20.9883 45.2119 21.2715C45.2119 22.8952 44.7493 24.9154 43.8242 27.332C42.918 29.7487 42.1344 31.2969 41.4736 31.9766C40.8128 32.6374 40.473 33.2132 40.4541 33.7041C40.4541 34.667 40.8317 35.6676 41.5869 36.7061C42.3988 37.82 42.8047 38.5563 42.8047 38.915C42.6348 39.3115 42.3138 39.5098 41.8418 39.5098C41.3698 39.5286 40.8789 39.2077 40.3691 38.5469C39.8594 37.8861 39.4818 37.4896 39.2363 37.3574C38.9909 37.2064 38.7266 37.1309 38.4434 37.1309C37.6315 37.1309 36.6592 37.9144 35.5264 39.4814L34.5352 40.8975C33.2891 42.7477 32.3356 43.9372 31.6748 44.4658C30.9951 45.0133 30.4098 45.2777 29.9189 45.2588C29.4092 45.2588 29.1449 45.1833 29.126 45.0322C29.2204 44.5413 30.1927 42.9932 32.043 40.3877C33.8743 37.8011 34.9694 36.2246 35.3281 35.6582C35.6868 35.0729 36.0928 34.4215 36.5459 33.7041C37.0179 32.9867 37.2633 32.4297 37.2822 32.0332C37.3011 31.6367 37.2256 30.7777 37.0557 29.4561C36.9046 28.1156 36.8291 27.0488 36.8291 26.2559C36.8291 25.444 36.9329 24.2734 37.1406 22.7441L37.5371 19.7988C37.5938 19.1758 37.641 18.8265 37.6787 18.751C37.7165 18.6566 37.8203 18.5622 37.9902 18.4678L41.0771 16.8818ZM54.4443 15.0693C55.2184 15.3525 55.6149 15.7301 55.6338 16.2021C55.6338 16.3721 55.5016 16.8346 55.2373 17.5898C55.2373 17.5898 54.8786 18.6188 54.1611 20.6768C51.6312 27.9268 50.2057 32.7223 49.8848 35.0635C51.2819 32.93 52.9622 29.8903 54.9258 25.9443C56.9082 21.9795 58.1071 19.61 58.5225 18.8359C58.9378 18.0618 59.2493 17.401 59.457 16.8535C59.6836 16.306 59.8913 16.0039 60.0801 15.9473C60.2689 15.8717 60.6182 15.834 61.1279 15.834C61.8831 15.834 62.2607 16.1833 62.2607 16.8818C62.2041 17.2406 61.7982 18.4206 61.043 20.4219C60.3066 22.4043 59.5042 25.0664 58.6357 28.4082C57.7861 31.7311 57.3613 34.0723 57.3613 35.4316C57.3802 36.7721 57.5124 37.4613 57.7578 37.499C58.5885 37.499 60.0801 36.319 62.2324 33.959C64.4036 31.5801 65.9896 29.4372 66.9902 27.5303C67.4056 26.7751 67.8021 26.388 68.1797 26.3691C68.3685 26.4069 68.4723 26.5579 68.4912 26.8223C68.4912 28.4082 67.4339 30.4756 65.3193 33.0244C63.2236 35.5732 61.4206 37.3669 59.9102 38.4053L59.3438 38.7734C58.7018 39.1133 58.2298 39.2832 57.9277 39.2832H57.4463C55.7848 39 54.9352 37.6029 54.8975 35.0918C54.8975 33.8457 55.0863 32.5618 55.4639 31.2402L56.0869 28.9463C54.2367 33.0055 52.6885 35.7998 51.4424 37.3291C50.2152 38.8395 49.1012 39.5947 48.1006 39.5947C47.3454 39.557 46.9678 38.8773 46.9678 37.5557C46.9678 35.3656 47.7419 31.6934 49.29 26.5391C51.4801 19.2702 52.8584 15.4281 53.4248 15.0127C53.5381 14.9561 53.6702 14.9277 53.8213 14.9277C53.9723 14.9277 54.18 14.9749 54.4443 15.0693ZM76.8174 19.2041C76.8174 21.9417 76.0622 23.3483 74.5518 23.4238C74.1742 23.4238 73.8154 23.3294 73.4756 23.1406C73.6266 26.4635 73.7021 29.7015 73.7021 32.8545C73.7021 36.0075 73.1074 38.2448 71.918 39.5664C71.2383 40.3216 70.3604 40.6992 69.2842 40.6992C68.2269 40.7181 67.4245 40.3499 66.877 39.5947C66.3294 38.8584 66.0557 38.1315 66.0557 37.4141C66.0934 36.5267 66.6598 36.0736 67.7549 36.0547C68.4535 36.0547 68.7555 36.5361 68.6611 37.499C68.5667 38.4619 68.7933 38.9434 69.3408 38.9434C70.3604 38.9434 70.9834 37.6501 71.21 35.0635C71.3232 33.874 71.3704 32.222 71.3516 30.1074C71.3516 27.9928 71.1816 26.9261 70.8418 26.9072C70.6908 26.9072 70.4831 27.1621 70.2188 27.6719C69.9544 28.1628 69.3125 29.1823 68.293 30.7305C67.2923 32.2786 66.4238 33.4303 65.6875 34.1855C64.9512 34.9408 64.4697 35.3561 64.2432 35.4316C63.7145 35.6204 63.4124 35.4505 63.3369 34.9219C63.3558 34.3555 63.6484 33.6947 64.2148 32.9395C66.2539 30.2396 68.2174 27.1243 70.1055 23.5938C70.5397 22.7819 70.7568 22.3099 70.7568 22.1777V18.0996C70.7568 17.3255 71.1344 16.7308 71.8896 16.3154C72.2106 16.1455 72.5127 16.0605 72.7959 16.0605C73.9665 16.0794 75.0521 16.4287 76.0527 17.1084C76.5247 17.4482 76.7702 17.8258 76.7891 18.2412C76.8079 18.6566 76.8174 18.9775 76.8174 19.2041ZM73.249 21.1016C73.891 20.9883 74.2591 20.7712 74.3535 20.4502C74.4668 20.1104 74.5234 19.7799 74.5234 19.459C74.5234 19.1191 74.5046 18.8643 74.4668 18.6943C73.9004 18.6943 73.5133 19.0908 73.3057 19.8838C73.2301 20.1481 73.1924 20.3936 73.1924 20.6201C73.1924 20.8467 73.2113 21.0072 73.249 21.1016Z" fill="black"/>
</svg>
