<svg xmlns="http://www.w3.org/2000/svg" width="157" height="57" viewBox="0 0 157 57" fill="none"><g clip-path="url(#clip0_442:197)"><path fill-rule="evenodd" clip-rule="evenodd" d="M113.469 25.0327L102.048 23.2705L112.498 17.9837C112.568 17.9456 112.624 17.8839 112.654 17.8093C112.684 17.7348 112.687 17.652 112.662 17.5755C112.638 17.4989 112.587 17.4333 112.519 17.3901C112.452 17.3469 112.371 17.3288 112.291 17.3389L100.687 19.1463L109.021 10.8979C109.079 10.8402 109.114 10.7635 109.121 10.6818C109.128 10.6001 109.105 10.5188 109.057 10.4525C109.008 10.3862 108.938 10.3393 108.858 10.3204C108.778 10.3015 108.695 10.3117 108.622 10.3493L98.2192 15.6835L103.461 5.32497C103.496 5.25213 103.504 5.16932 103.484 5.09102C103.464 5.01272 103.417 4.94392 103.352 4.89665C103.286 4.84938 103.206 4.82665 103.126 4.83245C103.045 4.83824 102.969 4.87218 102.911 4.92834L94.6793 13.2527L96.6149 1.66865C96.6279 1.58766 96.6118 1.50468 96.5694 1.43445C96.527 1.36422 96.4611 1.3113 96.3833 1.28509C96.3053 1.2599 96.2209 1.263 96.1449 1.29383C96.0689 1.32466 96.0062 1.38127 95.9677 1.45371L90.5848 11.9714L88.8118 0.53459C88.7992 0.453811 88.7581 0.380182 88.6961 0.326878C88.6341 0.273573 88.5552 0.244072 88.4734 0.243652C88.3914 0.24379 88.3122 0.273164 88.2499 0.326493C88.1877 0.379823 88.1465 0.45361 88.1338 0.53459L86.3383 11.9655L81.0064 1.40859C80.9699 1.3351 80.9082 1.27723 80.8325 1.2456C80.7568 1.21397 80.6723 1.2107 80.5943 1.2364C80.5166 1.26192 80.4504 1.3143 80.4078 1.38415C80.3651 1.454 80.3488 1.53676 80.3616 1.61759L82.2853 13.3537L73.9491 4.82384C73.8914 4.76591 73.8149 4.73042 73.7334 4.72371C73.6519 4.717 73.5707 4.73951 73.5043 4.78722C73.4378 4.83493 73.3906 4.90472 73.3709 4.9841C73.3512 5.06348 73.3604 5.14726 73.3969 5.22046L78.8238 15.8082L68.198 10.3148C68.125 10.2764 68.0405 10.2657 67.9602 10.2847C67.8799 10.3037 67.8091 10.3511 67.761 10.4182C67.7136 10.485 67.6913 10.5664 67.698 10.6481C67.7047 10.7298 67.7401 10.8065 67.7978 10.8647L76.3324 19.1962L64.5251 17.2783C64.4444 17.2651 64.3616 17.2813 64.2918 17.324C64.222 17.3667 64.1699 17.4331 64.1451 17.5111C64.1196 17.5889 64.1228 17.6732 64.1542 17.7488C64.1855 17.8245 64.243 17.8863 64.3161 17.9232L74.9276 23.2479L63.2248 25.0327C63.1391 25.0451 63.0614 25.0898 63.0076 25.1575C62.9537 25.2253 62.9278 25.311 62.935 25.3973C62.9469 25.5778 63.0989 25.7143 63.2758 25.7143H113.417C113.504 25.7151 113.587 25.683 113.651 25.6243C113.715 25.5657 113.754 25.485 113.761 25.3985C113.768 25.3121 113.741 25.2263 113.687 25.1586C113.633 25.0909 113.555 25.0464 113.469 25.0339" fill="#FF9800"></path><path fill-rule="evenodd" clip-rule="evenodd" d="M99.4533 25.739C99.4604 25.6036 99.3939 25.5193 99.3025 25.5051L94.4147 24.751L98.8868 22.49C98.9245 22.4705 98.9542 22.4385 98.9709 22.3995C98.9876 22.3605 98.9902 22.317 98.9783 22.2763C98.965 22.2353 98.9377 22.2004 98.9012 22.1776C98.8648 22.1548 98.8214 22.1456 98.7788 22.1516L93.8115 22.927L97.3799 19.393C97.4099 19.3628 97.4281 19.3229 97.4314 19.2805C97.4346 19.2381 97.4227 19.1959 97.3977 19.1615C97.3732 19.1265 97.3367 19.1016 97.2952 19.0916C97.2537 19.0815 97.2099 19.087 97.1721 19.1068L92.7154 21.3904L94.9598 16.9575C94.9792 16.9193 94.9841 16.8754 94.9736 16.834C94.9631 16.7925 94.938 16.7562 94.9028 16.7318C94.8685 16.7068 94.8263 16.695 94.7841 16.6985C94.7418 16.702 94.7021 16.7206 94.6724 16.7508L91.1503 20.3133L91.9803 15.3543C91.9865 15.3123 91.9778 15.2695 91.9556 15.2333C91.9335 15.1971 91.8994 15.1697 91.8592 15.156C91.8187 15.142 91.7744 15.1431 91.7346 15.1593C91.6949 15.1755 91.6623 15.2055 91.6431 15.2439L89.3393 19.7481L88.5782 14.8508C88.5731 14.8074 88.5523 14.7674 88.5197 14.7383C88.4871 14.7093 88.4449 14.6932 88.4012 14.6932C88.3575 14.6932 88.3154 14.7093 88.2827 14.7383C88.2501 14.7674 88.2293 14.8074 88.2243 14.8508L87.4572 19.7445L85.1748 15.2237C85.1548 15.1857 85.1221 15.1558 85.0824 15.1393C85.0427 15.1228 84.9985 15.1208 84.9575 15.1335C84.917 15.1472 84.8826 15.1746 84.8602 15.2111C84.8379 15.2475 84.829 15.2906 84.8351 15.333L85.6593 20.3561L82.0932 16.7021C82.063 16.6717 82.0229 16.6531 81.9802 16.6498C81.9374 16.6465 81.8949 16.6588 81.8605 16.6843C81.8254 16.7085 81.8003 16.7446 81.79 16.786C81.7798 16.8273 81.785 16.871 81.8046 16.9088L84.1274 21.445L79.5793 19.0914C79.5407 19.0715 79.4962 19.066 79.454 19.076C79.4117 19.086 79.3744 19.1109 79.3489 19.146C79.3244 19.181 79.3129 19.2235 79.3166 19.2661C79.3203 19.3086 79.3389 19.3485 79.3691 19.3788L83.023 22.946L77.9678 22.1266C77.9257 22.1194 77.8824 22.1275 77.8458 22.1495C77.8092 22.1715 77.7817 22.206 77.7683 22.2466C77.7557 22.2875 77.7578 22.3315 77.7743 22.371C77.7908 22.4105 77.8206 22.4429 77.8586 22.4627L82.3996 24.7403L77.3919 25.5051C77.2993 25.5193 77.2304 25.6025 77.2399 25.739H99.4533Z" fill="#FBCE20"></path><path fill-rule="evenodd" clip-rule="evenodd" d="M11.8191 41.1325C11.8191 41.465 11.7776 41.7951 11.7075 42.0884C11.3679 43.1536 10.203 44.068 8.89077 44.062C7.65102 44.0264 6.85895 43.4707 6.83283 42.0896C6.8447 41.0624 7.33395 40.4508 8.27208 39.9948C9.13895 39.5875 10.3858 39.3928 11.8191 39.3667V41.1325ZM18.3741 36.2542C18.3741 33.827 17.8588 31.5577 16.4623 29.8797C15.067 28.1958 12.8048 27.1663 9.48689 27.1722C5.86264 27.1722 3.13495 28.2267 1.72539 29.0449C1.6593 29.0832 1.60781 29.1423 1.57901 29.213C1.5502 29.2838 1.54572 29.362 1.56627 29.4356L2.68727 33.4434C2.70168 33.4945 2.72773 33.5417 2.76338 33.5811C2.79903 33.6204 2.84331 33.6511 2.89276 33.6705C2.94221 33.6899 2.99549 33.6977 3.04842 33.6931C3.10136 33.6885 3.15251 33.6717 3.19789 33.6441C4.41152 32.8983 6.49795 32.2072 8.40864 32.2096C11.1815 32.2559 11.5484 33.4446 11.6125 34.3851C8.27327 34.4267 5.47314 35.0477 3.45677 36.3326C1.36558 37.6543 0.147203 39.7324 0.154328 42.4625C0.161453 45.848 2.6647 49.0056 6.81264 49.0163H6.81858C8.99289 49.0163 10.9345 48.2658 12.2846 46.8443L12.5352 48.2753C12.5637 48.4415 12.7074 48.5591 12.8748 48.5591H18.3528C18.4039 48.5591 18.4545 48.5477 18.5007 48.5257C18.5469 48.5037 18.5877 48.4717 18.62 48.432C18.6521 48.3916 18.6749 48.3445 18.6866 48.2942C18.6983 48.2439 18.6987 48.1916 18.6876 48.1411C18.4501 47.0795 18.373 45.2258 18.373 43.3282V36.2542H18.3741ZM105.741 41.1325C105.741 41.465 105.699 41.7951 105.629 42.0884C105.288 43.1536 104.125 44.068 102.811 44.062C101.572 44.0264 100.78 43.4707 100.753 42.0896C100.765 41.0624 101.256 40.4508 102.193 39.9948C103.062 39.5875 104.308 39.3928 105.741 39.3667V41.1325ZM112.296 43.3293V36.2542C112.296 33.827 111.779 31.5577 110.382 29.8797C108.988 28.1958 106.724 27.1663 103.406 27.1722C99.782 27.1722 97.0567 28.2267 95.6471 29.0449C95.5808 29.083 95.5291 29.1421 95.5001 29.2128C95.471 29.2835 95.4664 29.3619 95.4868 29.4356L96.6078 33.4434C96.6223 33.4944 96.6482 33.5415 96.6836 33.581C96.719 33.6205 96.7629 33.6514 96.8121 33.6714C96.913 33.7106 97.027 33.6999 97.1184 33.6441C98.3321 32.8983 100.419 32.2072 102.332 32.2096C105.103 32.2559 105.47 33.4446 105.534 34.3851C102.195 34.4267 99.3937 35.0477 97.3761 36.3326C95.2885 37.6543 94.069 39.7324 94.0761 42.4636C94.0844 45.8492 96.5865 49.0068 100.733 49.0175H100.739C102.916 49.0175 104.857 48.267 106.206 46.8455L106.458 48.2765C106.485 48.4427 106.628 48.5603 106.798 48.5603H112.275C112.326 48.5605 112.377 48.5491 112.423 48.5272C112.47 48.5052 112.51 48.4731 112.543 48.4332C112.575 48.3928 112.598 48.3457 112.609 48.2953C112.621 48.245 112.621 48.1927 112.609 48.1423C112.373 47.0807 112.294 45.227 112.296 43.3293ZM148.863 28.4785C148.798 28.4131 148.71 28.376 148.618 28.3752H144.615V23.4138C144.615 23.3609 144.602 23.3088 144.579 23.2615C144.555 23.2141 144.521 23.1728 144.479 23.1407C144.437 23.1086 144.389 23.0865 144.337 23.0762C144.285 23.0659 144.231 23.0677 144.18 23.0813L138.233 24.7165C138.161 24.7365 138.097 24.78 138.051 24.8401C138.006 24.9002 137.981 24.9736 137.982 25.049V28.3752H135.363C135.271 28.376 135.183 28.4131 135.118 28.4785C135.055 28.5429 135.02 28.6293 135.019 28.7195V32.9399C135.019 33.2629 135.118 33.4303 135.118 33.4303C135.183 33.4933 135.273 33.5289 135.363 33.5289H137.982V41.1728C137.983 43.9635 138.542 45.9347 139.749 47.197C140.829 48.2777 142.553 48.9759 144.582 48.9783C146.298 48.9759 147.789 48.7443 148.619 48.4392C148.686 48.4145 148.743 48.3701 148.783 48.3119C148.824 48.2538 148.846 48.1847 148.846 48.1138L148.801 43.5217C148.8 43.4703 148.788 43.4198 148.765 43.3736C148.743 43.3275 148.71 43.2868 148.67 43.2545C148.63 43.2231 148.584 43.201 148.534 43.1899C148.485 43.1788 148.433 43.1789 148.384 43.1904C147.844 43.3056 147.491 43.3424 146.666 43.3448C145.829 43.3353 145.389 43.1156 145.082 42.6655C144.772 42.206 144.613 41.4056 144.616 40.2549V33.5289H148.618C148.663 33.5297 148.708 33.5214 148.75 33.5045C148.792 33.4876 148.83 33.4624 148.862 33.4305C148.893 33.3986 148.919 33.3606 148.936 33.3187C148.952 33.2769 148.961 33.232 148.96 33.1869V28.7195C148.96 28.6305 148.924 28.5402 148.863 28.4785ZM75.278 39.5317C75.278 40.034 75.2293 40.648 75.0975 41.0683C74.7305 42.3366 73.6368 43.2581 72.1881 43.2605C69.9271 43.2557 68.6018 41.2441 68.5805 38.4167C68.6018 34.961 70.2311 33.2118 72.2308 33.2083C73.7437 33.2202 74.7483 34.1464 75.1723 35.6355C75.234 35.9562 75.278 36.3243 75.278 36.6568V39.5317ZM81.8425 28.3763H76.5771C76.4911 28.3766 76.4083 28.4091 76.345 28.4673C76.2817 28.5255 76.2425 28.6053 76.2351 28.691L76.1116 30.1992C75.0262 28.8395 73.34 27.9239 70.9555 27.931C69.7287 27.9265 68.5149 28.1826 67.3945 28.6823C66.2741 29.182 65.2726 29.914 64.4563 30.8297C62.7819 32.6858 61.7476 35.3493 61.7476 38.5722C61.7476 41.4376 62.6287 43.8958 64.1546 45.6462C65.6794 47.3953 67.8513 48.4213 70.3617 48.4178C72.3686 48.4213 74.132 47.6922 75.3611 46.4073V46.7968C75.3266 50.2727 73.3922 51.5587 70.6348 51.6003C68.3928 51.6026 66.3206 50.8617 65.1367 50.1705C65.0905 50.1441 65.0389 50.1286 64.9857 50.1253C64.9326 50.122 64.8794 50.131 64.8303 50.1515C64.7818 50.172 64.7386 50.2033 64.704 50.243C64.6695 50.2827 64.6444 50.3298 64.6308 50.3807L63.4362 55.012C63.4167 55.0854 63.4224 55.1634 63.4526 55.2332C63.4828 55.303 63.5355 55.3606 63.6025 55.3967C65.4455 56.4013 68.8987 56.9203 71.5373 56.9215C74.4538 56.9215 76.7041 56.3574 78.9236 54.4408C81.2629 52.384 82.0348 49.1897 82.0348 45.3968V34.5442C82.0348 31.6348 82.1085 30.008 82.1856 28.7385C82.1883 28.6921 82.1814 28.6456 82.1655 28.6019C82.1496 28.5582 82.1249 28.5182 82.093 28.4844C82.0612 28.4501 82.0226 28.4228 81.9797 28.4042C81.9367 28.3856 81.8904 28.3761 81.8436 28.3763H81.8425ZM133.924 33.0943C133.568 31.8866 133.021 30.8903 132.312 30.103C130.994 28.634 129.138 27.9287 127.064 27.931C124.14 27.931 122.207 29.3822 121.184 30.6457L120.984 28.6827C120.974 28.5983 120.934 28.5204 120.87 28.4635C120.807 28.4067 120.725 28.3748 120.64 28.374H115.37C115.324 28.3743 115.278 28.3839 115.235 28.4023C115.192 28.4206 115.153 28.4473 115.121 28.4808C115.089 28.5148 115.064 28.5549 115.047 28.5988C115.031 28.6427 115.024 28.6894 115.026 28.7362C115.109 30.4842 115.19 32.516 115.19 34.942V48.2361C115.19 48.3251 115.229 48.413 115.293 48.4783C115.357 48.5425 115.446 48.5793 115.535 48.5793H121.599C121.689 48.5793 121.779 48.5437 121.841 48.4783C121.905 48.414 121.942 48.3271 121.944 48.2361V36.9786C121.941 36.4371 121.991 35.9015 122.117 35.5892C122.536 34.5478 123.418 33.5277 124.907 33.5277C126.863 33.5432 127.598 34.9432 127.64 37.4156V48.2361C127.64 48.3272 127.676 48.4145 127.741 48.4788C127.805 48.5432 127.893 48.5793 127.984 48.5793H134.053C134.144 48.5793 134.232 48.5432 134.296 48.4788C134.361 48.4145 134.397 48.3272 134.398 48.2361V36.7007C134.398 35.4942 134.267 34.41 134.022 33.4505L133.924 33.0943ZM91.3341 27.6318H85.266C85.1749 27.6318 85.0875 27.6679 85.0229 27.7322C84.9584 27.7965 84.922 27.8838 84.9216 27.975V48.2171C84.9216 48.3062 84.9585 48.3952 85.0214 48.4605C85.0871 48.5239 85.1747 48.5596 85.266 48.5603H91.3341C91.4244 48.5603 91.5135 48.5223 91.5764 48.4605C91.64 48.3954 91.6758 48.3081 91.6761 48.2171V27.9762C91.6766 27.931 91.6681 27.8862 91.6511 27.8444C91.6341 27.8025 91.609 27.7645 91.5772 27.7324C91.5453 27.7004 91.5075 27.675 91.4658 27.6577C91.424 27.6404 91.3793 27.6316 91.3341 27.6318ZM27.7696 19.5093H21.7015C21.6104 19.5102 21.5231 19.5464 21.4581 19.6102C21.3936 19.6754 21.3574 19.7632 21.3571 19.8548V48.2361C21.3578 48.3269 21.3941 48.4138 21.4583 48.4781C21.5226 48.5423 21.6095 48.5787 21.7003 48.5793H27.7696C27.8608 48.5793 27.9482 48.5432 28.0127 48.4788C28.0773 48.4145 28.1137 48.3272 28.114 48.2361V19.8548C28.1144 19.8094 28.1057 19.7643 28.0884 19.7223C28.071 19.6803 28.0454 19.6422 28.0131 19.6102C27.9482 19.5462 27.8608 19.51 27.7696 19.5093ZM46.5998 35.9182C46.873 34.4457 47.8467 32.643 50.0008 32.6561C52.2856 32.6585 52.928 34.5098 53.0325 35.9182H46.5998ZM50.3143 27.931C46.848 27.9251 44.2676 29.3489 42.5908 31.4104C40.9117 33.4707 40.1149 36.1473 40.1137 38.6933C40.1125 41.8165 41.0875 44.4052 42.9435 46.2019C44.796 47.9986 47.4976 48.9783 50.876 48.9747C53.542 48.9747 56.0179 48.5745 58.0746 47.7171C58.1475 47.6865 58.2077 47.6319 58.2453 47.5624C58.2829 47.4928 58.2956 47.4125 58.2813 47.3348L57.4833 43.2236C57.474 43.1758 57.4546 43.1304 57.4263 43.0907C57.3981 43.0509 57.3616 43.0177 57.3194 42.9933C57.2771 42.968 57.2297 42.9523 57.1807 42.9474C57.1316 42.9425 57.0821 42.9484 57.0356 42.9648C55.4289 43.5087 53.7996 43.7782 51.7536 43.7806C49.1411 43.7663 47.0131 42.7617 46.6355 40.7525H58.8168C58.8965 40.7523 58.9737 40.7245 59.0352 40.6739C59.0967 40.6232 59.1387 40.5528 59.1541 40.4746C59.2408 40.0138 59.3678 39.0852 59.3678 38.02C59.3655 35.5476 58.7563 33.0408 57.3087 31.1266C55.8647 29.2112 53.5598 27.9251 50.3143 27.9322V27.931ZM37.3991 19.5105H31.3321C31.2867 19.5101 31.2417 19.5189 31.1997 19.5361C31.1577 19.5534 31.1196 19.5789 31.0875 19.611C31.0554 19.6432 31.0301 19.6814 31.013 19.7235C30.9959 19.7656 30.9873 19.8106 30.9878 19.856V48.2373C30.9881 48.3284 31.0245 48.4157 31.089 48.48C31.1536 48.5443 31.241 48.5805 31.3321 48.5805H37.4003C37.4911 48.5795 37.578 48.5431 37.6423 48.479C37.7067 48.4149 37.7434 48.3281 37.7446 48.2373L37.7435 19.856C37.7428 19.7649 37.7063 19.6777 37.6419 19.6132C37.5775 19.5488 37.4902 19.5123 37.3991 19.5117V19.5105ZM152.521 24.8055H152.984C153.515 24.8055 153.962 24.6155 153.962 24.1263C153.962 23.7783 153.705 23.4316 152.986 23.4316C152.775 23.4316 152.629 23.4494 152.521 23.4637V24.8055ZM152.521 27H151.88V23.0338C152.218 22.9839 152.538 22.9364 153.015 22.9364C153.623 22.9364 154.032 23.0682 154.265 23.2416C154.509 23.4126 154.639 23.681 154.639 24.0598C154.639 24.5823 154.289 24.8946 153.856 25.0276V25.0585C154.208 25.1202 154.447 25.4349 154.521 26.0192C154.614 26.6367 154.719 26.8753 154.781 27H154.103C154.012 26.8753 153.913 26.5072 153.831 25.9907C153.737 25.48 153.487 25.2995 152.971 25.2995H152.52V27H152.521ZM153.201 21.9235C151.613 21.9235 150.309 23.2725 150.309 24.929C150.309 26.6236 151.613 27.9477 153.206 27.9477C154.812 27.9619 156.096 26.6236 156.096 24.9468C156.096 23.2725 154.812 21.9235 153.206 21.9235H153.201ZM153.206 21.3748C153.673 21.3731 154.136 21.4639 154.567 21.6421C154.998 21.8202 155.39 22.0821 155.72 22.4126C156.049 22.7431 156.31 23.1357 156.487 23.5677C156.664 23.9996 156.753 24.4623 156.75 24.929C156.75 26.9359 155.186 28.4998 153.199 28.4998C152.729 28.5036 152.263 28.4139 151.828 28.2358C151.393 28.0578 150.997 27.7949 150.665 27.4626C150.332 27.1303 150.069 26.7352 149.89 26.3003C149.712 25.8653 149.622 25.3992 149.625 24.929C149.625 24.4606 149.718 23.9969 149.898 23.5644C150.078 23.1319 150.341 22.7393 150.673 22.409C151.006 22.0788 151.4 21.8174 151.833 21.6399C152.267 21.4624 152.731 21.3723 153.199 21.3748H153.206Z" fill="#01579B"></path></g><defs><clipPath id="clip0_442:197"><rect width="156.75" height="57" fill="white"></rect></clipPath></defs></svg>