<svg version="1.1" id="Layer_1" xmlns="http://www.w3.org/2000/svg" xmlns:xlink="http://www.w3.org/1999/xlink" x="0px" y="0px" height="100%"
	 width="100%" viewBox="0 0 633 318" enable-background="new 0 0 633 318" xml:space="preserve">
<path fill="#FF9800" opacity="1.000000" stroke="none" 
	d="
M634.000000,310.000000 
	C634.000000,312.992950 634.000000,315.985931 634.000000,319.000000 
	C574.979126,319.000000 515.958191,319.000000 456.376221,318.636353 
	C454.987427,317.551117 454.242645,316.338806 453.319366,316.182831 
	C442.516449,314.357697 431.686157,312.694946 420.864227,310.981934 
	C412.283844,309.623749 403.705048,308.255493 395.125549,306.891693 
	C396.580292,304.836395 398.133179,303.990662 399.712189,303.196869 
	C415.340118,295.340576 430.996735,287.540405 446.559326,279.556885 
	C447.873291,278.882843 448.565674,276.997040 449.546814,275.674194 
	C447.908905,275.220215 446.178192,274.166901 444.647217,274.403900 
	C427.261993,277.095490 409.910004,280.000793 392.539612,282.789825 
	C391.103607,283.020386 389.598450,282.820282 386.940674,282.820282 
	C389.232239,280.425018 390.461975,279.088898 391.745178,277.806305 
	C403.410278,266.146851 415.123047,254.534607 426.709076,242.797195 
	C428.203033,241.283691 429.054321,239.135834 430.203339,237.281815 
	C429.816498,236.957901 429.429657,236.634003 429.042816,236.310089 
	C427.971436,236.572189 426.804810,236.644455 425.843903,237.126694 
	C418.699036,240.712387 411.619812,244.429077 404.472107,248.008987 
	C394.357239,253.074982 384.201324,258.058929 374.024506,263.038086 
	C373.986084,262.998260 373.904541,262.923370 373.927795,262.551819 
	C374.768585,260.186310 375.454315,258.125610 376.424683,256.208984 
	C383.798065,241.645096 391.283539,227.137451 398.555817,212.523575 
	C399.322388,210.983124 398.936310,208.869095 399.085022,207.021179 
	C397.452637,207.770477 395.446106,208.141190 394.245605,209.327515 
	C382.039459,221.390121 369.968719,233.589722 357.846741,245.737656 
	C356.618256,246.968781 355.302338,248.112686 353.069397,250.186356 
	C353.265594,247.543823 353.265076,246.279022 353.465179,245.046814 
	C356.313416,227.511017 359.226013,209.985504 361.994293,192.437195 
	C362.243713,190.856308 361.603577,189.135071 361.376587,187.479034 
	C359.962402,188.635162 358.427155,189.676239 357.178619,190.989822 
	C356.408447,191.800095 356.071503,193.023849 355.546722,194.065338 
	C349.399078,206.265884 343.291229,218.486710 337.083527,230.656631 
	C335.115479,234.514923 332.881897,238.237778 330.412964,242.662155 
	C329.719971,241.108688 329.311340,240.542480 329.215759,239.927582 
	C326.461578,222.211365 323.778229,204.483948 320.942596,186.780899 
	C320.691254,185.211655 319.480469,183.796097 318.715271,182.309174 
	C317.728577,183.546753 316.108643,184.668182 315.856934,186.040558 
	C314.090332,195.672379 312.599030,205.354843 311.033264,215.023331 
	C309.586273,223.958420 308.156189,232.896271 306.545410,242.910065 
	C305.282806,240.902023 304.519684,239.881805 303.955200,238.761520 
	C295.933228,222.841141 287.986816,206.882309 279.858948,191.016373 
	C279.074219,189.484558 277.204254,188.508713 275.838074,187.274780 
	C275.300720,189.157593 274.718964,191.029709 274.260132,192.931458 
	C274.157288,193.357697 274.527405,193.880753 274.608185,194.371033 
	C277.651093,212.838181 280.685638,231.306702 283.954651,251.194641 
	C281.700012,249.041412 280.387909,247.862778 279.158905,246.603027 
	C266.715973,233.848846 254.323990,221.044403 241.785065,208.385452 
	C240.742981,207.333420 238.733765,207.239334 237.173889,206.700165 
	C237.311508,208.215103 237.019958,209.944855 237.653854,211.211411 
	C243.319351,222.531036 249.172226,233.756638 254.918854,245.035980 
	C258.041748,251.165558 261.065674,257.345581 264.134216,263.502838 
	C255.983490,260.499420 248.772812,256.790558 241.579849,253.047653 
	C231.385757,247.743149 221.242249,242.338791 210.973297,237.183929 
	C209.603195,236.496155 207.625824,237.018158 205.929657,236.979950 
	C206.252380,238.124817 206.218750,239.625702 206.952377,240.360062 
	C215.191650,248.607574 223.650894,256.636536 231.840729,264.931824 
	C237.861176,271.029816 243.570435,277.435059 249.401459,283.685242 
	C248.994217,283.720764 248.192703,283.953003 247.449158,283.831268 
	C236.471954,282.033936 225.498840,280.210815 214.532318,278.349304 
	C206.672729,277.015167 198.838867,275.518372 190.957291,274.335571 
	C189.589569,274.130341 188.041428,275.127411 186.576614,275.569153 
	C187.396439,276.688629 188.059509,277.988678 189.081177,278.875671 
	C190.058395,279.724152 191.403885,280.152283 192.595306,280.749573 
	C207.340393,288.142151 222.090225,295.525269 236.828186,302.932007 
	C238.374237,303.709015 239.852325,304.621216 242.334290,306.017792 
	C240.453232,306.575378 239.730286,306.883209 238.977753,306.999054 
	C221.422653,309.701569 203.845734,312.271515 186.326996,315.191040 
	C183.744781,315.621338 181.435547,317.689575 179.000000,319.000000 
	C119.666664,319.000000 60.333332,319.000000 1.000000,319.000000 
	C1.000000,316.643799 1.000000,314.316650 1.276626,311.839417 
	C5.699620,310.459869 9.773164,308.793121 14.006875,308.087952 
	C24.147156,306.398956 34.378895,305.267853 44.543736,303.715302 
	C56.296268,301.920227 68.000015,299.804413 79.755623,298.031311 
	C91.861229,296.205444 104.022423,294.746704 116.124603,292.900024 
	C126.861893,291.261627 137.551605,289.311432 148.638199,287.435242 
	C147.550201,286.897827 146.574356,286.422607 145.604416,285.935669 
	C131.476562,278.843292 117.357071,271.734222 103.220352,264.659546 
	C84.741920,255.412109 66.223030,246.245056 47.775093,236.937317 
	C38.381405,232.197845 29.152227,227.131729 19.747349,222.415359 
	C16.787624,220.931107 14.804271,218.623901 16.327032,215.907196 
	C17.262119,214.238937 20.729385,212.936005 22.864491,213.179565 
	C31.431772,214.156830 39.925961,215.783447 48.441437,217.204330 
	C61.929611,219.455002 75.409424,221.755966 88.899864,223.992798 
	C100.309860,225.884705 111.733482,227.694305 123.144485,229.580154 
	C133.907181,231.358841 144.654785,233.229523 155.423325,234.971405 
	C158.412476,235.454910 161.452438,235.624130 164.469101,235.937546 
	C149.583420,220.099182 134.306412,205.427017 119.151451,190.629852 
	C100.306602,172.229904 81.566612,153.722595 62.769814,135.273392 
	C60.479115,133.025040 58.630844,129.988495 61.298279,127.728844 
	C62.948608,126.330811 67.067291,126.169441 69.167854,127.239449 
	C90.172081,137.938858 110.963448,149.055008 131.862854,159.961670 
	C148.718277,168.757889 165.634262,177.438217 182.535400,186.146637 
	C187.169418,188.534363 191.846634,190.838242 196.504013,193.180603 
	C194.983917,188.091782 192.589005,184.058945 190.448746,179.895203 
	C181.601334,162.683090 172.786987,145.453644 164.047470,128.186539 
	C157.954681,116.148697 152.047729,104.016876 145.974243,91.969139 
	C141.356720,82.809502 136.648407,73.694862 131.892319,64.606339 
	C130.478485,61.904598 130.206421,58.961517 133.033279,57.809715 
	C134.882629,57.056198 138.452286,57.689919 139.848892,59.095669 
	C154.945892,74.291473 169.697952,89.829002 184.681610,105.138718 
	C195.288864,115.976791 206.115128,126.600365 216.817841,137.345383 
	C217.971268,138.503372 218.844070,139.948334 220.031631,141.063644 
	C227.114578,147.715729 234.251755,154.310074 240.773392,160.368851 
	C240.195312,156.100876 239.617844,150.762421 238.727371,145.476700 
	C236.564621,132.638718 234.110077,119.848740 232.044205,106.995842 
	C229.534271,91.380211 227.420563,75.700920 224.914627,60.084610 
	C222.774719,46.749153 220.279053,33.471107 218.041199,20.150793 
	C217.523483,17.069136 217.764908,14.074022 221.628647,13.125704 
	C224.996475,12.299105 226.306686,14.591004 227.560211,17.064192 
	C236.697235,35.091347 245.919434,53.075539 255.005081,71.128487 
	C266.728027,94.421669 278.344666,117.768333 290.027802,141.081573 
	C290.551605,142.126846 291.280029,143.069595 292.437988,144.881195 
	C294.067780,134.582642 295.572266,125.324608 296.990112,116.053322 
	C298.740723,104.606094 300.340729,93.135414 302.150940,81.697830 
	C304.008881,69.958351 305.992096,58.237988 308.010620,46.524784 
	C310.627106,31.341818 313.332733,16.174215 316.000000,1.000001 
	C318.041656,1.000000 320.083344,1.000000 322.226898,1.305164 
	C322.885986,2.933526 323.739380,4.210609 323.953705,5.587193 
	C325.709534,16.863457 327.247192,28.174051 329.042969,39.443649 
	C331.605713,55.526443 334.474335,71.561295 336.949799,87.656990 
	C339.859863,106.578415 342.489014,125.543053 345.376007,145.425598 
	C346.319397,143.871857 346.841339,143.120972 347.255310,142.314651 
	C359.869110,117.746262 372.466278,93.169327 385.079163,68.600449 
	C393.695343,51.816875 402.372101,35.064190 410.920441,18.246193 
	C412.474365,15.189043 414.384735,13.005563 418.007599,14.110501 
	C421.559692,15.193853 421.376953,18.406729 420.938690,21.169991 
	C419.026001,33.230152 416.927826,45.260983 414.883728,57.300194 
	C412.595306,70.778267 410.312286,84.257309 407.989807,97.729530 
	C406.110077,108.633293 404.136078,119.520882 402.276428,130.428009 
	C400.524750,140.702026 398.867950,150.992188 397.534851,159.062836 
	C402.008240,155.124283 408.007629,150.397720 413.366272,145.031311 
	C441.702026,116.654625 469.838898,88.079178 498.234589,59.763042 
	C499.459900,58.541130 502.831055,58.504803 504.669525,59.243294 
	C505.696228,59.655727 506.336914,62.995857 505.887543,64.679306 
	C505.111816,67.585388 503.388611,70.247696 501.997314,72.978851 
	C493.126617,90.392288 484.166901,107.760765 475.373169,125.212914 
	C464.268738,147.250946 453.294830,169.354736 442.037170,191.885254 
	C443.327698,191.257172 444.272614,190.816559 445.200623,190.342834 
	C473.741455,175.772949 502.282623,161.203613 530.819275,146.625549 
	C543.843872,139.971893 556.839294,133.260132 569.914429,126.707512 
	C571.033508,126.146690 573.044067,126.044922 573.951355,126.693672 
	C575.281250,127.644630 576.865356,129.547745 576.740173,130.896515 
	C576.582336,132.597153 575.046326,134.380768 573.703796,135.729126 
	C551.717224,157.810547 529.673889,179.835403 507.625458,201.855087 
	C503.877991,205.597656 500.069458,209.279984 496.250488,212.949921 
	C488.514099,220.384277 480.751251,227.791061 472.076630,236.092224 
	C480.069336,234.919449 486.618622,233.996246 493.155243,232.990448 
	C502.819611,231.503372 512.475464,229.961227 522.133911,228.435806 
	C531.466492,226.961853 540.796936,225.474289 550.129761,224.002014 
	C559.787354,222.478500 569.446411,220.964340 579.105408,219.449417 
	C590.696289,217.631454 602.277771,215.748688 613.886292,214.050903 
	C616.654907,213.645981 619.865051,213.454147 620.893921,217.042465 
	C621.932373,220.663956 619.458130,222.361191 616.603333,223.802612 
	C590.244263,237.111481 563.926941,250.502960 537.557312,263.790894 
	C521.889709,271.686035 506.150299,279.438568 489.622864,287.663422 
	C494.887054,288.553650 499.145538,289.349335 503.427887,289.984161 
	C517.305237,292.041260 531.200195,293.980774 545.071472,296.077545 
	C557.636047,297.976776 570.184082,299.987671 582.728760,302.015320 
	C592.370483,303.573761 601.983887,305.308807 611.631836,306.826202 
	C619.070251,307.996124 626.542664,308.950043 634.000000,310.000000 
z"/>
<path fill="#000000" opacity="1.000000" stroke="none" 
	d="
M315.531342,1.000001 
	C313.332733,16.174215 310.627106,31.341818 308.010620,46.524784 
	C305.992096,58.237988 304.008881,69.958351 302.150940,81.697830 
	C300.340729,93.135414 298.740723,104.606094 296.990112,116.053322 
	C295.572266,125.324608 294.067780,134.582642 292.437988,144.881195 
	C291.280029,143.069595 290.551605,142.126846 290.027802,141.081573 
	C278.344666,117.768333 266.728027,94.421669 255.005081,71.128487 
	C245.919434,53.075539 236.697235,35.091347 227.560211,17.064192 
	C226.306686,14.591004 224.996475,12.299105 221.628647,13.125704 
	C217.764908,14.074022 217.523483,17.069136 218.041199,20.150793 
	C220.279053,33.471107 222.774719,46.749153 224.914627,60.084610 
	C227.420563,75.700920 229.534271,91.380211 232.044205,106.995842 
	C234.110077,119.848740 236.564621,132.638718 238.727371,145.476700 
	C239.617844,150.762421 240.195312,156.100876 240.773392,160.368851 
	C234.251755,154.310074 227.114578,147.715729 220.031631,141.063644 
	C218.844070,139.948334 217.971268,138.503372 216.817841,137.345383 
	C206.115128,126.600365 195.288864,115.976791 184.681610,105.138718 
	C169.697952,89.829002 154.945892,74.291473 139.848892,59.095669 
	C138.452286,57.689919 134.882629,57.056198 133.033279,57.809715 
	C130.206421,58.961517 130.478485,61.904598 131.892319,64.606339 
	C136.648407,73.694862 141.356720,82.809502 145.974243,91.969139 
	C152.047729,104.016876 157.954681,116.148697 164.047470,128.186539 
	C172.786987,145.453644 181.601334,162.683090 190.448746,179.895203 
	C192.589005,184.058945 194.983917,188.091782 196.504013,193.180603 
	C191.846634,190.838242 187.169418,188.534363 182.535400,186.146637 
	C165.634262,177.438217 148.718277,168.757889 131.862854,159.961670 
	C110.963448,149.055008 90.172081,137.938858 69.167854,127.239449 
	C67.067291,126.169441 62.948608,126.330811 61.298279,127.728844 
	C58.630844,129.988495 60.479115,133.025040 62.769814,135.273392 
	C81.566612,153.722595 100.306602,172.229904 119.151451,190.629852 
	C134.306412,205.427017 149.583420,220.099182 164.469101,235.937546 
	C161.452438,235.624130 158.412476,235.454910 155.423325,234.971405 
	C144.654785,233.229523 133.907181,231.358841 123.144485,229.580154 
	C111.733482,227.694305 100.309860,225.884705 88.899864,223.992798 
	C75.409424,221.755966 61.929611,219.455002 48.441437,217.204330 
	C39.925961,215.783447 31.431772,214.156830 22.864491,213.179565 
	C20.729385,212.936005 17.262119,214.238937 16.327032,215.907196 
	C14.804271,218.623901 16.787624,220.931107 19.747349,222.415359 
	C29.152227,227.131729 38.381405,232.197845 47.775093,236.937317 
	C66.223030,246.245056 84.741920,255.412109 103.220352,264.659546 
	C117.357071,271.734222 131.476562,278.843292 145.604416,285.935669 
	C146.574356,286.422607 147.550201,286.897827 148.638199,287.435242 
	C137.551605,289.311432 126.861893,291.261627 116.124603,292.900024 
	C104.022423,294.746704 91.861229,296.205444 79.755623,298.031311 
	C68.000015,299.804413 56.296268,301.920227 44.543736,303.715302 
	C34.378895,305.267853 24.147156,306.398956 14.006875,308.087952 
	C9.773164,308.793121 5.699620,310.459869 1.276626,311.344696 
	C1.000000,207.739014 1.000000,104.478035 1.000000,1.000000 
	C105.687462,1.000000 210.375076,1.000000 315.531342,1.000001 
z"/>
<path fill="#000000" opacity="1.000000" stroke="none" 
	d="
M634.000000,309.531342 
	C626.542664,308.950043 619.070251,307.996124 611.631836,306.826202 
	C601.983887,305.308807 592.370483,303.573761 582.728760,302.015320 
	C570.184082,299.987671 557.636047,297.976776 545.071472,296.077545 
	C531.200195,293.980774 517.305237,292.041260 503.427887,289.984161 
	C499.145538,289.349335 494.887054,288.553650 489.622864,287.663422 
	C506.150299,279.438568 521.889709,271.686035 537.557312,263.790894 
	C563.926941,250.502960 590.244263,237.111481 616.603333,223.802612 
	C619.458130,222.361191 621.932373,220.663956 620.893921,217.042465 
	C619.865051,213.454147 616.654907,213.645981 613.886292,214.050903 
	C602.277771,215.748688 590.696289,217.631454 579.105408,219.449417 
	C569.446411,220.964340 559.787354,222.478500 550.129761,224.002014 
	C540.796936,225.474289 531.466492,226.961853 522.133911,228.435806 
	C512.475464,229.961227 502.819611,231.503372 493.155243,232.990448 
	C486.618622,233.996246 480.069336,234.919449 472.076630,236.092224 
	C480.751251,227.791061 488.514099,220.384277 496.250488,212.949921 
	C500.069458,209.279984 503.877991,205.597656 507.625458,201.855087 
	C529.673889,179.835403 551.717224,157.810547 573.703796,135.729126 
	C575.046326,134.380768 576.582336,132.597153 576.740173,130.896515 
	C576.865356,129.547745 575.281250,127.644630 573.951355,126.693672 
	C573.044067,126.044922 571.033508,126.146690 569.914429,126.707512 
	C556.839294,133.260132 543.843872,139.971893 530.819275,146.625549 
	C502.282623,161.203613 473.741455,175.772949 445.200623,190.342834 
	C444.272614,190.816559 443.327698,191.257172 442.037170,191.885254 
	C453.294830,169.354736 464.268738,147.250946 475.373169,125.212914 
	C484.166901,107.760765 493.126617,90.392288 501.997314,72.978851 
	C503.388611,70.247696 505.111816,67.585388 505.887543,64.679306 
	C506.336914,62.995857 505.696228,59.655727 504.669525,59.243294 
	C502.831055,58.504803 499.459900,58.541130 498.234589,59.763042 
	C469.838898,88.079178 441.702026,116.654625 413.366272,145.031311 
	C408.007629,150.397720 402.008240,155.124283 397.534851,159.062836 
	C398.867950,150.992188 400.524750,140.702026 402.276428,130.428009 
	C404.136078,119.520882 406.110077,108.633293 407.989807,97.729530 
	C410.312286,84.257309 412.595306,70.778267 414.883728,57.300194 
	C416.927826,45.260983 419.026001,33.230152 420.938690,21.169991 
	C421.376953,18.406729 421.559692,15.193853 418.007599,14.110501 
	C414.384735,13.005563 412.474365,15.189043 410.920441,18.246193 
	C402.372101,35.064190 393.695343,51.816875 385.079163,68.600449 
	C372.466278,93.169327 359.869110,117.746262 347.255310,142.314651 
	C346.841339,143.120972 346.319397,143.871857 345.376007,145.425598 
	C342.489014,125.543053 339.859863,106.578415 336.949799,87.656990 
	C334.474335,71.561295 331.605713,55.526443 329.042969,39.443649 
	C327.247192,28.174051 325.709534,16.863457 323.953705,5.587193 
	C323.739380,4.210609 322.885986,2.933526 322.664398,1.305164 
	C426.593475,1.000000 530.186951,1.000000 634.000000,1.000000 
	C634.000000,103.687454 634.000000,206.375076 634.000000,309.531342 
z"/>
<path fill="#FBCE20" opacity="1.000000" stroke="none" 
	d="
M179.468658,319.000000 
	C181.435547,317.689575 183.744781,315.621338 186.326996,315.191040 
	C203.845734,312.271515 221.422653,309.701569 238.977753,306.999054 
	C239.730286,306.883209 240.453232,306.575378 242.334290,306.017792 
	C239.852325,304.621216 238.374237,303.709015 236.828186,302.932007 
	C222.090225,295.525269 207.340393,288.142151 192.595306,280.749573 
	C191.403885,280.152283 190.058395,279.724152 189.081177,278.875671 
	C188.059509,277.988678 187.396439,276.688629 186.576614,275.569153 
	C188.041428,275.127411 189.589569,274.130341 190.957291,274.335571 
	C198.838867,275.518372 206.672729,277.015167 214.532318,278.349304 
	C225.498840,280.210815 236.471954,282.033936 247.449158,283.831268 
	C248.192703,283.953003 248.994217,283.720764 249.401459,283.685242 
	C243.570435,277.435059 237.861176,271.029816 231.840729,264.931824 
	C223.650894,256.636536 215.191650,248.607574 206.952377,240.360062 
	C206.218750,239.625702 206.252380,238.124817 205.929657,236.979950 
	C207.625824,237.018158 209.603195,236.496155 210.973297,237.183929 
	C221.242249,242.338791 231.385757,247.743149 241.579849,253.047653 
	C248.772812,256.790558 255.983490,260.499420 264.134216,263.502838 
	C261.065674,257.345581 258.041748,251.165558 254.918854,245.035980 
	C249.172226,233.756638 243.319351,222.531036 237.653854,211.211411 
	C237.019958,209.944855 237.311508,208.215103 237.173889,206.700165 
	C238.733765,207.239334 240.742981,207.333420 241.785065,208.385452 
	C254.323990,221.044403 266.715973,233.848846 279.158905,246.603027 
	C280.387909,247.862778 281.700012,249.041412 283.954651,251.194641 
	C280.685638,231.306702 277.651093,212.838181 274.608185,194.371033 
	C274.527405,193.880753 274.157288,193.357697 274.260132,192.931458 
	C274.718964,191.029709 275.300720,189.157593 275.838074,187.274780 
	C277.204254,188.508713 279.074219,189.484558 279.858948,191.016373 
	C287.986816,206.882309 295.933228,222.841141 303.955200,238.761520 
	C304.519684,239.881805 305.282806,240.902023 306.545410,242.910065 
	C308.156189,232.896271 309.586273,223.958420 311.033264,215.023331 
	C312.599030,205.354843 314.090332,195.672379 315.856934,186.040558 
	C316.108643,184.668182 317.728577,183.546753 318.715271,182.309174 
	C319.480469,183.796097 320.691254,185.211655 320.942596,186.780899 
	C323.778229,204.483948 326.461578,222.211365 329.215759,239.927582 
	C329.311340,240.542480 329.719971,241.108688 330.412964,242.662155 
	C332.881897,238.237778 335.115479,234.514923 337.083527,230.656631 
	C343.291229,218.486710 349.399078,206.265884 355.546722,194.065338 
	C356.071503,193.023849 356.408447,191.800095 357.178619,190.989822 
	C358.427155,189.676239 359.962402,188.635162 361.376587,187.479034 
	C361.603577,189.135071 362.243713,190.856308 361.994293,192.437195 
	C359.226013,209.985504 356.313416,227.511017 353.465179,245.046814 
	C353.265076,246.279022 353.265594,247.543823 353.069397,250.186356 
	C355.302338,248.112686 356.618256,246.968781 357.846741,245.737656 
	C369.968719,233.589722 382.039459,221.390121 394.245605,209.327515 
	C395.446106,208.141190 397.452637,207.770477 399.085022,207.021179 
	C398.936310,208.869095 399.322388,210.983124 398.555817,212.523575 
	C391.283539,227.137451 383.798065,241.645096 376.424683,256.208984 
	C375.454315,258.125610 374.768585,260.186310 373.854004,262.609131 
	C373.756989,263.037994 373.795990,263.314880 373.795990,263.314880 
	C373.795990,263.314880 374.062927,263.077911 374.062927,263.077911 
	C384.201324,258.058929 394.357239,253.074982 404.472107,248.008987 
	C411.619812,244.429077 418.699036,240.712387 425.843903,237.126694 
	C426.804810,236.644455 427.971436,236.572189 429.042816,236.310089 
	C429.429657,236.634003 429.816498,236.957901 430.203339,237.281815 
	C429.054321,239.135834 428.203033,241.283691 426.709076,242.797195 
	C415.123047,254.534607 403.410278,266.146851 391.745178,277.806305 
	C390.461975,279.088898 389.232239,280.425018 386.940674,282.820282 
	C389.598450,282.820282 391.103607,283.020386 392.539612,282.789825 
	C409.910004,280.000793 427.261993,277.095490 444.647217,274.403900 
	C446.178192,274.166901 447.908905,275.220215 449.546814,275.674194 
	C448.565674,276.997040 447.873291,278.882843 446.559326,279.556885 
	C430.996735,287.540405 415.340118,295.340576 399.712189,303.196869 
	C398.133179,303.990662 396.580292,304.836395 395.125549,306.891693 
	C403.705048,308.255493 412.283844,309.623749 420.864227,310.981934 
	C431.686157,312.694946 442.516449,314.357697 453.319366,316.182831 
	C454.242645,316.338806 454.987427,317.551117 455.907562,318.636353 
	C363.979095,319.000000 271.958221,319.000000 179.468658,319.000000 
z"/>
<path fill="#FF9800" opacity="1.000000" stroke="none" 
	d="
M374.024506,263.038086 
	C374.062927,263.077911 373.795990,263.314880 373.795990,263.314880 
	C373.795990,263.314880 373.756989,263.037994 373.830750,262.980682 
	C373.904541,262.923370 373.986084,262.998260 374.024506,263.038086 
z"/>
</svg>